<mxfile host="app.diagrams.net" modified="2020-10-26T21:27:45.501Z" agent="5.0 (Windows NT 10.0; Win64; x64) AppleWebKit/537.36 (KHTML, like Gecko) Chrome/86.0.4240.111 Safari/537.36 Edg/86.0.622.51" etag="b1nHNwOIfFxZMG_rvGH1" version="13.8.3" type="github">
  <diagram id="TZjmMTo3kYAItsDh1o8w" name="Page-1">
    <mxGraphModel dx="780" dy="752" grid="1" gridSize="10" guides="1" tooltips="1" connect="1" arrows="1" fold="1" page="1" pageScale="1" pageWidth="850" pageHeight="1100" math="0" shadow="0">
      <root>
        <mxCell id="0" />
        <mxCell id="1" parent="0" />
        <mxCell id="j3YiqOddQRq7oSPTVMDh-1" value="" style="rounded=0;html=1;jettySize=auto;orthogonalLoop=1;fontSize=11;endArrow=block;endFill=0;endSize=8;strokeWidth=1;shadow=0;labelBackgroundColor=none;edgeStyle=orthogonalEdgeStyle;" edge="1" parent="1" source="j3YiqOddQRq7oSPTVMDh-2">
          <mxGeometry relative="1" as="geometry">
            <mxPoint x="220" y="170" as="targetPoint" />
          </mxGeometry>
        </mxCell>
        <mxCell id="j3YiqOddQRq7oSPTVMDh-2" value="hello.cc" style="rounded=1;whiteSpace=wrap;html=1;fontSize=12;glass=0;strokeWidth=1;shadow=0;" vertex="1" parent="1">
          <mxGeometry x="160" y="80" width="120" height="40" as="geometry" />
        </mxCell>
        <mxCell id="j3YiqOddQRq7oSPTVMDh-3" value="preprocessor" style="text;html=1;strokeColor=none;fillColor=none;align=center;verticalAlign=middle;whiteSpace=wrap;rounded=0;" vertex="1" parent="1">
          <mxGeometry x="240" y="130" width="70" height="20" as="geometry" />
        </mxCell>
        <mxCell id="j3YiqOddQRq7oSPTVMDh-4" value="" style="rounded=0;html=1;jettySize=auto;orthogonalLoop=1;fontSize=11;endArrow=block;endFill=0;endSize=8;strokeWidth=1;shadow=0;labelBackgroundColor=none;edgeStyle=orthogonalEdgeStyle;" edge="1" parent="1" source="j3YiqOddQRq7oSPTVMDh-5">
          <mxGeometry relative="1" as="geometry">
            <mxPoint x="220" y="260" as="targetPoint" />
          </mxGeometry>
        </mxCell>
        <mxCell id="j3YiqOddQRq7oSPTVMDh-5" value="hello.ii" style="rounded=1;whiteSpace=wrap;html=1;fontSize=12;glass=0;strokeWidth=1;shadow=0;" vertex="1" parent="1">
          <mxGeometry x="160" y="170" width="120" height="40" as="geometry" />
        </mxCell>
        <mxCell id="j3YiqOddQRq7oSPTVMDh-6" value="compiler" style="text;html=1;strokeColor=none;fillColor=none;align=center;verticalAlign=middle;whiteSpace=wrap;rounded=0;" vertex="1" parent="1">
          <mxGeometry x="240" y="220" width="50" height="20" as="geometry" />
        </mxCell>
        <mxCell id="j3YiqOddQRq7oSPTVMDh-7" value="-E" style="text;html=1;strokeColor=none;fillColor=none;align=center;verticalAlign=middle;whiteSpace=wrap;rounded=0;" vertex="1" parent="1">
          <mxGeometry x="190" y="130" width="30" height="20" as="geometry" />
        </mxCell>
        <mxCell id="j3YiqOddQRq7oSPTVMDh-8" value="-S" style="text;html=1;strokeColor=none;fillColor=none;align=center;verticalAlign=middle;whiteSpace=wrap;rounded=0;" vertex="1" parent="1">
          <mxGeometry x="190" y="220" width="30" height="20" as="geometry" />
        </mxCell>
        <mxCell id="j3YiqOddQRq7oSPTVMDh-9" value="" style="rounded=0;html=1;jettySize=auto;orthogonalLoop=1;fontSize=11;endArrow=block;endFill=0;endSize=8;strokeWidth=1;shadow=0;labelBackgroundColor=none;edgeStyle=orthogonalEdgeStyle;" edge="1" parent="1" source="j3YiqOddQRq7oSPTVMDh-10">
          <mxGeometry relative="1" as="geometry">
            <mxPoint x="220" y="350" as="targetPoint" />
          </mxGeometry>
        </mxCell>
        <mxCell id="j3YiqOddQRq7oSPTVMDh-10" value="hello.s" style="rounded=1;whiteSpace=wrap;html=1;fontSize=12;glass=0;strokeWidth=1;shadow=0;" vertex="1" parent="1">
          <mxGeometry x="160" y="260" width="120" height="40" as="geometry" />
        </mxCell>
        <mxCell id="j3YiqOddQRq7oSPTVMDh-11" value="assembler" style="text;html=1;strokeColor=none;fillColor=none;align=center;verticalAlign=middle;whiteSpace=wrap;rounded=0;" vertex="1" parent="1">
          <mxGeometry x="240" y="310" width="60" height="20" as="geometry" />
        </mxCell>
        <mxCell id="j3YiqOddQRq7oSPTVMDh-12" value="-c" style="text;html=1;strokeColor=none;fillColor=none;align=center;verticalAlign=middle;whiteSpace=wrap;rounded=0;" vertex="1" parent="1">
          <mxGeometry x="190" y="310" width="30" height="20" as="geometry" />
        </mxCell>
        <mxCell id="j3YiqOddQRq7oSPTVMDh-13" value="" style="rounded=0;html=1;jettySize=auto;orthogonalLoop=1;fontSize=11;endArrow=block;endFill=0;endSize=8;strokeWidth=1;shadow=0;labelBackgroundColor=none;edgeStyle=orthogonalEdgeStyle;" edge="1" parent="1" source="j3YiqOddQRq7oSPTVMDh-14">
          <mxGeometry relative="1" as="geometry">
            <mxPoint x="220" y="480" as="targetPoint" />
          </mxGeometry>
        </mxCell>
        <mxCell id="j3YiqOddQRq7oSPTVMDh-14" value="hello.o" style="rounded=1;whiteSpace=wrap;html=1;fontSize=12;glass=0;strokeWidth=1;shadow=0;" vertex="1" parent="1">
          <mxGeometry x="160" y="350" width="120" height="40" as="geometry" />
        </mxCell>
        <mxCell id="j3YiqOddQRq7oSPTVMDh-15" value="" style="rounded=0;html=1;jettySize=auto;orthogonalLoop=1;fontSize=11;endArrow=block;endFill=0;endSize=8;strokeWidth=1;shadow=0;labelBackgroundColor=none;edgeStyle=orthogonalEdgeStyle;" edge="1" parent="1" source="j3YiqOddQRq7oSPTVMDh-16">
          <mxGeometry relative="1" as="geometry">
            <mxPoint x="220" y="420" as="targetPoint" />
            <Array as="points">
              <mxPoint x="380" y="420" />
              <mxPoint x="230" y="420" />
            </Array>
          </mxGeometry>
        </mxCell>
        <mxCell id="j3YiqOddQRq7oSPTVMDh-16" value="libxxx.a" style="rounded=1;whiteSpace=wrap;html=1;fontSize=12;glass=0;strokeWidth=1;shadow=0;" vertex="1" parent="1">
          <mxGeometry x="320" y="350" width="120" height="40" as="geometry" />
        </mxCell>
        <mxCell id="j3YiqOddQRq7oSPTVMDh-17" value="linker" style="text;html=1;strokeColor=none;fillColor=none;align=center;verticalAlign=middle;whiteSpace=wrap;rounded=0;" vertex="1" parent="1">
          <mxGeometry x="260" y="400" width="40" height="20" as="geometry" />
        </mxCell>
        <mxCell id="j3YiqOddQRq7oSPTVMDh-18" value="libxxx.so" style="rounded=1;whiteSpace=wrap;html=1;fontSize=12;glass=0;strokeWidth=1;shadow=0;" vertex="1" parent="1">
          <mxGeometry x="480" y="350" width="120" height="40" as="geometry" />
        </mxCell>
        <mxCell id="j3YiqOddQRq7oSPTVMDh-19" value="" style="rounded=0;html=1;jettySize=auto;orthogonalLoop=1;fontSize=11;endArrow=block;endFill=0;endSize=8;strokeWidth=1;shadow=0;labelBackgroundColor=none;edgeStyle=orthogonalEdgeStyle;" edge="1" parent="1">
          <mxGeometry relative="1" as="geometry">
            <mxPoint x="540" y="390" as="sourcePoint" />
            <mxPoint x="380" y="420" as="targetPoint" />
            <Array as="points">
              <mxPoint x="540" y="420" />
              <mxPoint x="390" y="420" />
            </Array>
          </mxGeometry>
        </mxCell>
        <mxCell id="j3YiqOddQRq7oSPTVMDh-20" value="hello.out" style="rounded=1;whiteSpace=wrap;html=1;fontSize=12;glass=0;strokeWidth=1;shadow=0;" vertex="1" parent="1">
          <mxGeometry x="160" y="480" width="120" height="40" as="geometry" />
        </mxCell>
        <mxCell id="j3YiqOddQRq7oSPTVMDh-21" value="-l" style="text;html=1;strokeColor=none;fillColor=none;align=center;verticalAlign=middle;whiteSpace=wrap;rounded=0;" vertex="1" parent="1">
          <mxGeometry x="260" y="420" width="30" height="20" as="geometry" />
        </mxCell>
        <mxCell id="j3YiqOddQRq7oSPTVMDh-22" value="-o" style="text;html=1;strokeColor=none;fillColor=none;align=center;verticalAlign=middle;whiteSpace=wrap;rounded=0;" vertex="1" parent="1">
          <mxGeometry x="190" y="440" width="30" height="20" as="geometry" />
        </mxCell>
      </root>
    </mxGraphModel>
  </diagram>
</mxfile>
